<svg xmlns="http://www.w3.org/2000/svg" width="188" height="206" viewBox="0 0 188 206">
  <!-- Cadre Sama (widgets/tooltip.svg), translucide sur flou -->
  <style type="text/css" id="current-color-scheme">.ColorScheme-Background { color:#fbf9f6; }</style>
  <defs>
    <radialGradient id="angle-hg" cx="30" cy="30" r="30" gradientUnits="userSpaceOnUse">
      <stop offset="0.400" stop-color="#000" stop-opacity="0.100"/><stop offset="0.550" stop-color="#000" stop-opacity="0.055"/><stop offset="0.700" stop-color="#000" stop-opacity="0.025"/><stop offset="0.850" stop-color="#000" stop-opacity="0.007"/><stop offset="1.000" stop-color="#000" stop-opacity="0.000"/></radialGradient>
    <radialGradient id="angle-hd" cx="0" cy="30" r="30" gradientUnits="userSpaceOnUse">
      <stop offset="0.400" stop-color="#000" stop-opacity="0.100"/><stop offset="0.550" stop-color="#000" stop-opacity="0.055"/><stop offset="0.700" stop-color="#000" stop-opacity="0.025"/><stop offset="0.850" stop-color="#000" stop-opacity="0.007"/><stop offset="1.000" stop-color="#000" stop-opacity="0.000"/></radialGradient>
    <radialGradient id="angle-bg" cx="30" cy="0" r="30" gradientUnits="userSpaceOnUse">
      <stop offset="0.400" stop-color="#000" stop-opacity="0.100"/><stop offset="0.550" stop-color="#000" stop-opacity="0.055"/><stop offset="0.700" stop-color="#000" stop-opacity="0.025"/><stop offset="0.850" stop-color="#000" stop-opacity="0.007"/><stop offset="1.000" stop-color="#000" stop-opacity="0.000"/></radialGradient>
    <radialGradient id="angle-bd" cx="0" cy="0" r="30" gradientUnits="userSpaceOnUse">
      <stop offset="0.400" stop-color="#000" stop-opacity="0.100"/><stop offset="0.550" stop-color="#000" stop-opacity="0.055"/><stop offset="0.700" stop-color="#000" stop-opacity="0.025"/><stop offset="0.850" stop-color="#000" stop-opacity="0.007"/><stop offset="1.000" stop-color="#000" stop-opacity="0.000"/></radialGradient>
    <linearGradient id="bord-h" x1="0" y1="0" x2="0" y2="1">
      <stop offset="0.000" stop-color="#000" stop-opacity="0.000"/><stop offset="0.150" stop-color="#000" stop-opacity="0.007"/><stop offset="0.300" stop-color="#000" stop-opacity="0.025"/><stop offset="0.450" stop-color="#000" stop-opacity="0.055"/><stop offset="0.600" stop-color="#000" stop-opacity="0.100"/></linearGradient>
    <linearGradient id="bord-b" x1="0" y1="1" x2="0" y2="0">
      <stop offset="0.000" stop-color="#000" stop-opacity="0.000"/><stop offset="0.150" stop-color="#000" stop-opacity="0.007"/><stop offset="0.300" stop-color="#000" stop-opacity="0.025"/><stop offset="0.450" stop-color="#000" stop-opacity="0.055"/><stop offset="0.600" stop-color="#000" stop-opacity="0.100"/></linearGradient>
    <linearGradient id="bord-g" x1="0" y1="0" x2="1" y2="0">
      <stop offset="0.000" stop-color="#000" stop-opacity="0.000"/><stop offset="0.150" stop-color="#000" stop-opacity="0.007"/><stop offset="0.300" stop-color="#000" stop-opacity="0.025"/><stop offset="0.450" stop-color="#000" stop-opacity="0.055"/><stop offset="0.600" stop-color="#000" stop-opacity="0.100"/></linearGradient>
    <linearGradient id="bord-d" x1="1" y1="0" x2="0" y2="0">
      <stop offset="0.000" stop-color="#000" stop-opacity="0.000"/><stop offset="0.150" stop-color="#000" stop-opacity="0.007"/><stop offset="0.300" stop-color="#000" stop-opacity="0.025"/><stop offset="0.450" stop-color="#000" stop-opacity="0.055"/><stop offset="0.600" stop-color="#000" stop-opacity="0.100"/></linearGradient>
  </defs>
  <g class="ColorScheme-Background" fill="currentColor" fill-opacity="0.94">
    <path id="topleft" d="M12 0 A12 12 0 0 0 0 12 L12 12 Z"/>
    <rect id="top" x="12" y="0" width="60" height="12"/>
    <path id="topright" d="M72 0 A12 12 0 0 1 84 12 L72 12 Z"/>
    <rect id="left" x="0" y="12" width="12" height="60"/>
    <rect id="center" x="12" y="12" width="60" height="60"/>
    <rect id="right" x="72" y="12" width="12" height="60"/>
    <path id="bottomleft" d="M0 72 A12 12 0 0 0 12 84 L12 72 Z"/>
    <rect id="bottom" x="12" y="72" width="60" height="12"/>
    <path id="bottomright" d="M72 72 L84 72 A12 12 0 0 1 72 84 Z"/>
  </g>
  <!-- Forme du flou d'arrière-plan -->
  <g fill="#000000">
    <path id="mask-topleft" d="M116 0 A12 12 0 0 0 104 12 L116 12 Z"/>
    <rect id="mask-top" x="116" y="0" width="60" height="12"/>
    <path id="mask-topright" d="M176 0 A12 12 0 0 1 188 12 L176 12 Z"/>
    <rect id="mask-left" x="104" y="12" width="12" height="60"/>
    <rect id="mask-center" x="116" y="12" width="60" height="60"/>
    <rect id="mask-right" x="176" y="12" width="12" height="60"/>
    <path id="mask-bottomleft" d="M104 72 A12 12 0 0 0 116 84 L116 72 Z"/>
    <rect id="mask-bottom" x="116" y="72" width="60" height="12"/>
    <path id="mask-bottomright" d="M176 72 L188 72 A12 12 0 0 1 176 84 Z"/>
  </g>
  <!-- Marges intérieures -->
  <g fill="none">
    <rect id="hint-top-margin" x="0" y="88" width="4" height="8"/>
    <rect id="hint-bottom-margin" x="8" y="88" width="4" height="8"/>
    <rect id="hint-left-margin" x="16" y="88" width="8" height="4"/>
    <rect id="hint-right-margin" x="28" y="88" width="8" height="4"/>
  </g>
  <!-- Ombre douce (dessinée par le gestionnaire de fenêtres autour du cadre) -->
  <g fill="none">
    <rect id="shadow-hint-top-margin" x="0" y="104" width="4" height="18"/>
    <rect id="shadow-hint-bottom-margin" x="8" y="104" width="4" height="18"/>
    <rect id="shadow-hint-left-margin" x="16" y="104" width="18" height="4"/>
    <rect id="shadow-hint-right-margin" x="38" y="104" width="18" height="4"/>
  </g>
    <g transform="translate(0 124)"><rect id="shadow-topleft" x="0" y="0" width="30" height="30" fill="url(#angle-hg)"/></g>
    <g transform="translate(34 124)"><rect id="shadow-top" x="0" y="0" width="10" height="30" fill="url(#bord-h)"/></g>
    <g transform="translate(48 124)"><rect id="shadow-topright" x="0" y="0" width="30" height="30" fill="url(#angle-hd)"/></g>
    <g transform="translate(0 158)"><rect id="shadow-left" x="0" y="0" width="30" height="10" fill="url(#bord-g)"/></g>
    <g transform="translate(48 158)"><rect id="shadow-right" x="0" y="0" width="30" height="10" fill="url(#bord-d)"/></g>
    <g transform="translate(0 172)"><rect id="shadow-bottomleft" x="0" y="0" width="30" height="30" fill="url(#angle-bg)"/></g>
    <g transform="translate(34 172)"><rect id="shadow-bottom" x="0" y="0" width="10" height="30" fill="url(#bord-b)"/></g>
    <g transform="translate(48 172)"><rect id="shadow-bottomright" x="0" y="0" width="30" height="30" fill="url(#angle-bd)"/></g>
</svg>
