<svg xmlns="http://www.w3.org/2000/svg" width="64" height="64" viewBox="0 0 64 64">
  <path d="M4 14a4 4 0 0 1 4-4h16l6 6h26a4 4 0 0 1 4 4v28a4 4 0 0 1-4 4H8a4 4 0 0 1-4-4z" fill="#B9864A"/>
  <path d="M4 22a4 4 0 0 1 4-4h48a4 4 0 0 1 4 4v26a4 4 0 0 1-4 4H8a4 4 0 0 1-4-4z" fill="#D9A35F"/>
  <g transform="translate(22.4 25.4) scale(0.8)" fill="none" stroke="#8A5F2A" stroke-width="2" stroke-linecap="round" stroke-linejoin="round"><path d="M7 18a4 4 0 0 1-.6-7.95A6 6 0 0 1 18 9a4.5 4.5 0 0 1 0 9z"/></g>
</svg>
